<?xml version="1.0" encoding="UTF-8"?> <svg xmlns="http://www.w3.org/2000/svg" width="151" height="50" viewBox="0 0 151 50" fill="none"><path d="M82.8004 18.0387L82.2514 8.47431L74.4342 25.9414H71.7365L63.9192 8.54361L62.9162 25.9414H58.0391L59.7685 0.20752H65.1297L73.0851 17.951L81.0405 0.20752H86.4018L86.9879 8.92508L82.8004 18.0387Z" fill="white"></path><path d="M0 13.0745C0 5.22276 5.43031 0 13.5587 0C17.7443 0 21.1337 1.38387 23.659 4.11593L20.58 7.2287C19.1278 5.36081 16.672 4.04681 13.628 4.04681C8.47433 4.04681 5.05015 7.67891 5.05015 13.109C5.05015 18.6088 8.54364 22.2407 13.6973 22.2407C17.1564 22.2407 19.5429 20.6841 21.1683 18.1935L24.4544 21.1339C21.9984 24.4884 18.2632 26.287 13.5936 26.287C5.46543 26.287 0.00018699 20.9953 0.00018699 13.0745H0Z" fill="white"></path><path d="M44.3105 21.8941V25.9413H28.123V0.345459H33V21.8941H44.3105Z" fill="white"></path><path d="M47.8691 0.345459H52.7461V25.9413H47.8691V0.345459Z" fill="white"></path><path d="M128.694 4.39264H120.877V25.9411H116.001V4.39264H108.218V0.345459H128.694V4.39264Z" fill="white"></path><path d="M149.926 21.8941V25.9413H132.252V0.345459H149.65V4.39264H137.129V10.9645H148.543V14.9762H137.129V21.8941H149.926Z" fill="white"></path><path d="M101.403 16.81L97.1486 6.39864L92.8943 16.81H101.403H101.403ZM103.029 20.8568H91.2339L89.1587 25.9415H83.9355L94.8657 0.345703H99.3967L110.327 25.9415H105.104L103.029 20.8568H103.029Z" fill="white"></path><path d="M145.234 50.0002H5.12568C2.33608 50.0002 0.0742188 47.7383 0.0742188 44.9481V37.3615C0.0742188 34.5719 2.3359 32.3101 5.12568 32.3101H145.234C148.024 32.3101 150.286 34.5719 150.286 37.3615V44.9481C150.286 47.7383 148.024 50.0002 145.234 50.0002Z" fill="#81C34D"></path><path d="M15.5142 38.7959V41.0486H19.2684V42.1543H15.5142V44.9697H14.2939V37.6694H19.4663V38.7959H15.5142Z" fill="#FEFEFE"></path><path d="M20.6251 39.8182H21.793V44.9698H20.6251V39.8182ZM20.4688 38.3369C20.4688 37.9093 20.7815 37.6064 21.2091 37.6064C21.6574 37.6064 21.9705 37.9093 21.9705 38.3369C21.9705 38.7435 21.6574 39.046 21.2091 39.046C20.7815 39.046 20.4688 38.7435 20.4688 38.3369Z" fill="#FEFEFE"></path><path d="M28.2595 42.1225V44.9694H27.0918V42.1955C27.0918 41.2882 26.6224 40.7668 25.8402 40.7668C24.985 40.7668 24.3904 41.3926 24.3904 42.2581V44.9694H23.2227V39.818H24.2656L24.2761 40.4958C24.7141 39.9744 25.3295 39.7136 26.0593 39.7136C27.3838 39.7136 28.2597 40.6525 28.2597 42.1227L28.2595 42.1225Z" fill="#FEFEFE"></path><path d="M33.5794 42.394C33.5794 41.4348 32.9329 40.7671 32.0048 40.7671C31.0766 40.7671 30.4302 41.4348 30.4302 42.394C30.4302 43.3533 31.0766 44.0209 32.0048 44.0209C32.9329 44.0209 33.5794 43.3533 33.5794 42.394ZM34.7473 39.8183V44.9699H33.7047L33.6943 44.2815C33.2979 44.7822 32.6099 45.0844 31.8169 45.0844C30.3049 45.0844 29.2617 43.9791 29.2617 42.3942C29.2617 40.8091 30.3047 39.7036 31.8169 39.7036C32.6201 39.7036 33.2977 40.0061 33.6943 40.5065L33.7047 39.8185H34.7473V39.8183Z" fill="#FEFEFE"></path><path d="M41.2041 42.1225V44.9694H40.0361V42.1955C40.0361 41.2882 39.5667 40.7668 38.7845 40.7668C37.9295 40.7668 37.3353 41.3926 37.3353 42.2581V44.9694H36.167V39.818H37.2099L37.2208 40.4958C37.6583 39.9744 38.2738 39.7136 39.0037 39.7136C40.3283 39.7136 41.2041 40.6525 41.2041 42.1227V42.1225Z" fill="#FEFEFE"></path><path d="M42.2051 42.3942C42.2051 40.7983 43.3106 39.7036 44.948 39.7036C45.6986 39.7036 46.3451 39.9644 46.8979 40.4962L46.1887 41.2577C45.876 40.9444 45.4273 40.7675 44.9687 40.7675C44.0302 40.7675 43.3728 41.4351 43.3728 42.3944C43.3728 43.3641 44.0194 44.0213 44.9687 44.0213C45.4692 44.0213 45.928 43.8334 46.2411 43.4896L46.9606 44.2714C46.3868 44.8242 45.7509 45.0846 44.9584 45.0846C43.2897 45.0846 42.2051 44.0213 42.2051 42.3944V42.3942Z" fill="#FEFEFE"></path><path d="M48.6504 41.9245H51.6434C51.5601 41.1943 50.9969 40.7252 50.1417 40.7252C49.3279 40.7252 48.7963 41.1631 48.6504 41.9245ZM52.7594 42.8319H48.6401C48.7337 43.5825 49.3595 44.0624 50.267 44.0624C50.851 44.0624 51.4347 43.8537 51.7475 43.5303L52.4566 44.2187C51.9455 44.7715 51.1217 45.1154 50.2353 45.1154C48.5355 45.1154 47.4404 44.0413 47.4404 42.3942C47.4404 40.7983 48.5146 39.7139 50.1105 39.7139C51.9247 39.7139 52.9258 40.9029 52.7592 42.8321L52.7594 42.8319Z" fill="#FEFEFE"></path><path d="M61.4915 42.7898C61.4915 42.133 61.0116 41.737 60.2191 41.737H57.7998V43.864H60.2087C61.0013 43.864 61.4915 43.4571 61.4915 42.7898ZM57.7998 38.7542V40.6836H60.1151C60.8449 40.6836 61.2725 40.3286 61.2725 39.7239C61.2725 39.1189 60.8347 38.7542 60.1151 38.7542H57.7998ZM62.7011 42.9462C62.7011 44.2396 61.7519 44.9695 60.0731 44.9695H56.5898V37.6694H60.0731C61.5643 37.6694 62.4719 38.3894 62.4719 39.5992C62.4719 40.3286 62.1276 40.9025 61.5432 41.1939C62.2006 41.4342 62.7011 42.164 62.7011 42.9462Z" fill="#FEFEFE"></path><path d="M63.8955 37.6699H65.0632V44.97H63.8955V37.6699Z" fill="#FEFEFE"></path><path d="M67.3682 41.9245H70.3612C70.2779 41.1943 69.7146 40.7252 68.8594 40.7252C68.0457 40.7252 67.5141 41.1631 67.3682 41.9245ZM71.477 42.8319H67.3577C67.4515 43.5825 68.0771 44.0624 68.9846 44.0624C69.5686 44.0624 70.1523 43.8537 70.4651 43.5303L71.1742 44.2187C70.6633 44.7715 69.8393 45.1154 68.953 45.1154C67.2531 45.1154 66.1582 44.0413 66.1582 42.3942C66.1582 40.7983 67.2324 39.7139 68.8281 39.7139C70.6425 39.7139 71.6434 40.9029 71.4768 42.8321L71.477 42.8319Z" fill="#FEFEFE"></path><path d="M77.58 42.1225V44.9694H76.4121V42.1955C76.4121 41.2882 75.9427 40.7668 75.1605 40.7668C74.3055 40.7668 73.7107 41.3926 73.7107 42.2581V44.9694H72.543V39.818H73.5859L73.5964 40.4958C74.0343 39.9744 74.6498 39.7136 75.3796 39.7136C76.7043 39.7136 77.58 40.6525 77.58 42.1227V42.1225Z" fill="#FEFEFE"></path><path d="M82.8993 42.3938C82.8993 41.4345 82.2528 40.7669 81.3246 40.7669C80.3965 40.7669 79.75 41.4345 79.75 42.3938C79.75 43.353 80.3965 44.0207 81.3246 44.0207C82.2528 44.0207 82.8993 43.353 82.8993 42.3938ZM84.0671 37.6694V44.9695H83.0247L83.0142 44.2811C82.6178 44.7818 81.9298 45.084 81.1163 45.084C79.656 45.084 78.582 44.0207 78.582 42.3938C78.582 40.7669 79.656 39.7032 81.1163 39.7032C81.8566 39.7032 82.4927 39.9532 82.8995 40.3705V37.6694H84.0673H84.0671Z" fill="#FEFEFE"></path><path d="M85.4884 39.8182H86.6561V44.9698H85.4884V39.8182ZM85.332 38.3369C85.332 37.9093 85.6447 37.6064 86.0727 37.6064C86.5211 37.6064 86.8341 37.9093 86.8341 38.3369C86.8341 38.7435 86.5211 39.046 86.0727 39.046C85.6447 39.046 85.332 38.7435 85.332 38.3369Z" fill="#FEFEFE"></path><path d="M93.123 42.1225V44.9694H91.9551V42.1955C91.9551 41.2882 91.486 40.7668 90.7035 40.7668C89.8485 40.7668 89.254 41.3926 89.254 42.2581V44.9694H88.0859V39.818H89.1289L89.1397 40.4958C89.5772 39.9744 90.1928 39.7136 90.9226 39.7136C92.2471 39.7136 93.123 40.6525 93.123 42.1227V42.1225Z" fill="#FEFEFE"></path><path d="M98.5043 42.2998C98.5043 41.382 97.868 40.7671 96.8985 40.7671C95.9286 40.7671 95.2923 41.3822 95.2923 42.2998C95.2923 43.2071 95.9383 43.8118 96.8985 43.8118C97.8574 43.8118 98.5043 43.2071 98.5043 42.2998ZM98.358 44.2809C99.1824 44.5835 99.641 45.1576 99.641 45.9186C99.641 47.2222 98.5566 48.0565 96.8985 48.0565C95.1982 48.0565 94.1137 47.1282 94.1763 45.7415H95.3235C95.3028 46.5024 95.9181 47.0031 96.8985 47.0031C97.837 47.0031 98.4624 46.5652 98.4624 45.9084C98.4624 45.2618 97.8785 44.8654 96.9192 44.8654C95.2088 44.8654 94.124 43.8639 94.124 42.3C94.124 40.7983 95.2815 39.703 96.8774 39.703C97.4199 39.703 97.9097 39.8282 98.2745 40.0473L98.9319 39.2444L99.7763 39.8909L99.057 40.7254C99.4949 41.2367 99.6722 41.6949 99.6722 42.3C99.6722 43.2178 99.2134 43.9062 98.358 44.2811V44.2809Z" fill="#FEFEFE"></path><path d="M104.814 38.7959V41.0486H108.568V42.1543H104.814V44.9697H103.594V37.6694H108.766V38.7959H104.814Z" fill="#FEFEFE"></path><path d="M113.765 42.394C113.765 41.4348 113.119 40.7671 112.191 40.7671C111.263 40.7671 110.616 41.4348 110.616 42.394C110.616 43.3533 111.263 44.0209 112.191 44.0209C113.119 44.0209 113.765 43.3533 113.765 42.394ZM114.933 39.8183V44.9699H113.891L113.88 44.2815C113.484 44.7822 112.796 45.0844 112.003 45.0844C110.491 45.0844 109.448 43.9791 109.448 42.3942C109.448 40.8091 110.491 39.7036 112.003 39.7036C112.806 39.7036 113.484 40.0061 113.88 40.5065L113.891 39.8185H114.933V39.8183Z" fill="#FEFEFE"></path><path d="M116.016 42.3942C116.016 40.7983 117.121 39.7036 118.758 39.7036C119.509 39.7036 120.155 39.9644 120.708 40.4962L119.999 41.2577C119.687 40.9444 119.238 40.7675 118.779 40.7675C117.84 40.7675 117.183 41.4351 117.183 42.3944C117.183 43.3641 117.83 44.0213 118.779 44.0213C119.28 44.0213 119.739 43.8334 120.051 43.4896L120.771 44.2714C120.198 44.8242 119.562 45.0846 118.769 45.0846C117.1 45.0846 116.016 44.0213 116.016 42.3944L116.016 42.3942Z" fill="#FEFEFE"></path><path d="M121.709 39.8182H122.877V44.9698H121.709V39.8182ZM121.553 38.3369C121.553 37.9093 121.865 37.6064 122.293 37.6064C122.741 37.6064 123.054 37.9093 123.054 38.3369C123.054 38.7435 122.741 39.046 122.293 39.046C121.865 39.046 121.553 38.7435 121.553 38.3369Z" fill="#FEFEFE"></path><path d="M124.307 37.6699H125.474V44.97H124.307V37.6699Z" fill="#FEFEFE"></path><path d="M126.908 39.8182H128.076V44.9698H126.908V39.8182ZM126.752 38.3369C126.752 37.9093 127.065 37.6064 127.492 37.6064C127.941 37.6064 128.254 37.9093 128.254 38.3369C128.254 38.7435 127.941 39.046 127.492 39.046C127.065 39.046 126.752 38.7435 126.752 38.3369Z" fill="#FEFEFE"></path><path d="M132.913 44.7923C132.517 44.9698 132.183 45.0428 131.756 45.0428C130.692 45.0428 130.067 44.4275 130.067 43.1966V40.8092H129.097V39.8184H130.067V38.473L131.224 38.3477V39.8182H132.705V40.809H131.224V43.1964C131.224 43.7182 131.464 44.0102 131.943 44.0102C132.152 44.0102 132.392 43.9476 132.59 43.8538L132.913 44.7923H132.913Z" fill="#FEFEFE"></path><path d="M138.733 39.8181L135.5 47.3472H134.228L135.271 44.9387L133.237 39.8181H134.489L135.385 42.1642L135.917 43.6454L136.512 42.1642L137.481 39.8181H138.733Z" fill="#FEFEFE"></path></svg> 