<?xml version="1.0" encoding="UTF-8"?> <svg xmlns="http://www.w3.org/2000/svg" width="773" height="257" viewBox="0 0 773 257" fill="none"><path d="M425.507 92.7005L422.685 43.5494L382.513 133.312H368.65L328.476 43.9056L323.322 133.312H298.259L307.146 1.06656H334.697L375.58 92.2502L416.462 1.06656H444.014L447.026 45.8659L425.507 92.7005Z" fill="#009FD4"></path><path d="M0 67.1894C0 26.8397 27.9062 0 69.6778 0C91.1875 0 108.606 7.11168 121.583 21.1517L105.76 37.1482C98.2973 27.5491 85.6771 20.7965 70.0339 20.7965C43.5494 20.7965 25.9526 39.4618 25.9526 67.367C25.9526 95.6304 43.9056 114.295 70.3901 114.295C88.1664 114.295 100.43 106.295 108.783 93.4963L125.671 108.607C113.05 125.845 93.8544 135.088 69.8573 135.088C28.0867 135.088 0 107.894 0 67.1894Z" fill="#009FD4"></path><path d="M227.697 112.514V133.312H144.51V1.776H169.572V112.514H227.697Z" fill="#009FD4"></path><path d="M246.003 1.776H271.066V133.312H246.003V1.776Z" fill="#009FD4"></path><path d="M661.332 22.5744H621.158V133.311H596.098V22.5744H556.102V1.776H661.332V22.5744Z" fill="#00A788"></path><path d="M770.467 112.514V133.312H679.639V1.776H769.045V22.5744H704.701V56.3472H763.357V76.9632H704.701V112.514H770.467Z" fill="#00A788"></path><path d="M521.086 86.3866L499.222 32.8829L477.359 86.3866H521.086ZM529.44 107.183H468.827L458.162 133.313H431.32L487.49 1.77696H510.775L566.946 133.313H540.104L529.44 107.183Z" fill="#00A788"></path><path d="M746.327 256.95H26.3146C11.9789 256.95 0.355194 245.326 0.355194 230.988V192C0.355194 177.664 11.9779 166.041 26.3146 166.041H746.327C760.665 166.041 772.289 177.664 772.289 192V230.988C772.289 245.326 760.666 256.95 746.327 256.95Z" fill="#81C34D"></path><path d="M79.7117 199.372V210.948H99.0048V216.631H79.7117V231.099H73.441V193.583H100.021V199.372H79.7117Z" fill="#FEFEFE"></path><path d="M105.98 204.626H111.982V231.1H105.98V204.626ZM105.177 197.013C105.177 194.816 106.784 193.26 108.981 193.26C111.285 193.26 112.894 194.816 112.894 197.013C112.894 199.103 111.285 200.657 108.981 200.657C106.784 200.657 105.177 199.103 105.177 197.013Z" fill="#FEFEFE"></path><path d="M145.213 216.468V231.098H139.212V216.843C139.212 212.18 136.8 209.501 132.78 209.501C128.386 209.501 125.33 212.717 125.33 217.164V231.098H119.329V204.625H124.689L124.742 208.108C126.994 205.428 130.156 204.088 133.907 204.088C140.713 204.088 145.214 208.913 145.214 216.468L145.213 216.468Z" fill="#FEFEFE"></path><path d="M172.554 217.861C172.554 212.932 169.232 209.501 164.462 209.501C159.692 209.501 156.371 212.932 156.371 217.861C156.371 222.791 159.692 226.222 164.462 226.222C169.232 226.222 172.554 222.791 172.554 217.861ZM178.556 204.625V231.099H173.198L173.145 227.561C171.108 230.134 167.572 231.687 163.497 231.687C155.726 231.687 150.366 226.007 150.366 217.862C150.366 209.717 155.725 204.036 163.497 204.036C167.625 204.036 171.107 205.59 173.145 208.162L173.198 204.626L178.556 204.625Z" fill="#FEFEFE"></path><path d="M211.739 216.468V231.098H205.737V216.843C205.737 212.18 203.324 209.501 199.305 209.501C194.911 209.501 191.857 212.717 191.857 217.164V231.098H185.853V204.625H191.213L191.268 208.108C193.517 205.428 196.68 204.088 200.431 204.088C207.238 204.088 211.739 208.912 211.739 216.468Z" fill="#FEFEFE"></path><path d="M216.892 217.861C216.892 209.66 222.573 204.035 230.988 204.035C234.845 204.035 238.167 205.375 241.008 208.108L237.364 212.021C235.757 210.411 233.451 209.502 231.094 209.502C226.271 209.502 222.893 212.933 222.893 217.862C222.893 222.846 226.215 226.223 231.094 226.223C233.666 226.223 236.024 225.257 237.633 223.491L241.331 227.508C238.381 230.349 235.114 231.687 231.041 231.687C222.466 231.687 216.892 226.222 216.892 217.861Z" fill="#FEFEFE"></path><path d="M250.02 215.45H265.401C264.972 211.697 262.078 209.287 257.683 209.287C253.501 209.287 250.769 211.537 250.02 215.45ZM271.136 220.113H249.967C250.448 223.97 253.664 226.436 258.327 226.436C261.328 226.436 264.328 225.364 265.935 223.702L269.579 227.24C266.953 230.08 262.719 231.848 258.164 231.848C249.429 231.848 243.802 226.328 243.802 217.863C243.802 209.662 249.322 204.089 257.523 204.089C266.846 204.089 271.991 210.2 271.135 220.114L271.136 220.113Z" fill="#FEFEFE"></path><path d="M316.002 219.897C316.002 216.521 313.536 214.486 309.464 214.486H297.031V225.417H309.41C313.483 225.417 316.002 223.326 316.002 219.897ZM297.031 199.158V209.073H308.929C312.68 209.073 314.877 207.249 314.877 204.141C314.877 201.032 312.627 199.158 308.929 199.158H297.031ZM322.218 220.7C322.218 227.347 317.34 231.098 308.713 231.098H290.813V193.583H308.713C316.377 193.583 321.04 197.283 321.04 203.5C321.04 207.249 319.271 210.198 316.268 211.695C319.646 212.93 322.218 216.681 322.218 220.7Z" fill="#FEFEFE"></path><path d="M328.339 193.585H334.34V231.1H328.339V193.585Z" fill="#FEFEFE"></path><path d="M346.189 215.45H361.571C361.142 211.697 358.248 209.287 353.853 209.287C349.671 209.287 346.939 211.537 346.189 215.45ZM367.305 220.113H346.136C346.618 223.97 349.833 226.436 354.496 226.436C357.497 226.436 360.497 225.364 362.104 223.702L365.748 227.24C363.123 230.08 358.888 231.848 354.334 231.848C345.598 231.848 339.971 226.328 339.971 217.863C339.971 209.662 345.492 204.089 353.692 204.089C363.016 204.089 368.16 210.2 367.304 220.114L367.305 220.113Z" fill="#FEFEFE"></path><path d="M398.664 216.468V231.098H392.662V216.843C392.662 212.18 390.25 209.501 386.23 209.501C381.836 209.501 378.78 212.717 378.78 217.164V231.098H372.779V204.625H378.138L378.192 208.108C380.442 205.428 383.605 204.088 387.356 204.088C394.164 204.088 398.664 208.912 398.664 216.468Z" fill="#FEFEFE"></path><path d="M426.004 217.861C426.004 212.932 422.681 209.501 417.911 209.501C413.142 209.501 409.819 212.932 409.819 217.861C409.819 222.791 413.142 226.222 417.911 226.222C422.681 226.222 426.004 222.791 426.004 217.861ZM432.005 193.583V231.098H426.648L426.594 227.56C424.557 230.133 421.021 231.686 416.841 231.686C409.336 231.686 403.817 226.222 403.817 217.861C403.817 209.501 409.336 204.035 416.841 204.035C420.645 204.035 423.914 205.319 426.005 207.464V193.583H432.005Z" fill="#FEFEFE"></path><path d="M439.304 204.626H445.305V231.1H439.304V204.626ZM438.5 197.013C438.5 194.816 440.107 193.26 442.307 193.26C444.611 193.26 446.22 194.816 446.22 197.013C446.22 199.103 444.611 200.657 442.307 200.657C440.107 200.657 438.5 199.103 438.5 197.013Z" fill="#FEFEFE"></path><path d="M478.535 216.468V231.098H472.533V216.843C472.533 212.18 470.123 209.501 466.101 209.501C461.707 209.501 458.652 212.717 458.652 217.164V231.098H452.65V204.625H458.009L458.065 208.108C460.313 205.428 463.476 204.088 467.227 204.088C474.034 204.088 478.535 208.912 478.535 216.468Z" fill="#FEFEFE"></path><path d="M506.196 217.379C506.196 212.662 502.927 209.502 497.944 209.502C492.96 209.502 489.69 212.663 489.69 217.379C489.69 222.041 493.01 225.149 497.944 225.149C502.872 225.149 506.196 222.041 506.196 217.379ZM505.445 227.559C509.681 229.115 512.038 232.065 512.038 235.976C512.038 242.675 506.465 246.962 497.944 246.962C489.206 246.962 483.634 242.192 483.955 235.066H489.851C489.744 238.976 492.906 241.548 497.944 241.548C502.767 241.548 505.981 239.298 505.981 235.923C505.981 232.6 502.98 230.563 498.051 230.563C489.261 230.563 483.686 225.417 483.686 217.38C483.686 209.662 489.635 204.034 497.836 204.034C500.624 204.034 503.141 204.677 505.016 205.803L508.394 201.677L512.733 204.999L509.037 209.288C511.287 211.915 512.198 214.27 512.198 217.38C512.198 222.096 509.841 225.633 505.445 227.559Z" fill="#FEFEFE"></path><path d="M538.633 199.372V210.948H557.926V216.631H538.633V231.099H532.364V193.583H558.945V199.372H538.633Z" fill="#FEFEFE"></path><path d="M584.624 217.861C584.624 212.932 581.302 209.501 576.532 209.501C571.763 209.501 568.439 212.932 568.439 217.861C568.439 222.791 571.762 226.222 576.532 226.222C581.302 226.222 584.624 222.791 584.624 217.861ZM590.626 204.625V231.099H585.27L585.215 227.561C583.178 230.134 579.641 231.687 575.569 231.687C567.797 231.687 562.438 226.007 562.438 217.862C562.438 209.717 567.796 204.036 575.569 204.036C579.695 204.036 583.177 205.59 585.215 208.162L585.27 204.626L590.626 204.625Z" fill="#FEFEFE"></path><path d="M596.21 217.861C596.21 209.66 601.89 204.035 610.303 204.035C614.162 204.035 617.485 205.375 620.324 208.108L616.682 212.021C615.075 210.411 612.771 209.502 610.412 209.502C605.587 209.502 602.211 212.933 602.211 217.862C602.211 222.846 605.535 226.223 610.412 226.223C612.985 226.223 615.344 225.257 616.949 223.491L620.649 227.508C617.701 230.349 614.433 231.687 610.359 231.687C601.784 231.687 596.211 226.223 596.211 217.862L596.21 217.861Z" fill="#FEFEFE"></path><path d="M625.478 204.626H631.479V231.1H625.478V204.626ZM624.675 197.013C624.675 194.816 626.282 193.26 628.479 193.26C630.783 193.26 632.392 194.816 632.392 197.013C632.392 199.103 630.783 200.657 628.479 200.657C626.282 200.657 624.675 199.103 624.675 197.013Z" fill="#FEFEFE"></path><path d="M638.824 193.585H644.825V231.1H638.824V193.585Z" fill="#FEFEFE"></path><path d="M652.172 204.626H658.173V231.1H652.172V204.626ZM651.369 197.013C651.369 194.816 652.976 193.26 655.173 193.26C657.477 193.26 659.086 194.816 659.086 197.013C659.086 199.103 657.477 200.657 655.173 200.657C652.976 200.657 651.369 199.103 651.369 197.013Z" fill="#FEFEFE"></path><path d="M683.043 230.187C681.008 231.099 679.292 231.474 677.095 231.474C671.628 231.474 668.415 228.312 668.415 221.987V209.718H663.43V204.626H668.415V197.712L674.364 197.068V204.625H681.971V209.717H674.364V221.986C674.364 224.667 675.595 226.167 678.06 226.167C679.134 226.167 680.365 225.846 681.384 225.364L683.043 230.187Z" fill="#FEFEFE"></path><path d="M712.953 204.625L696.34 243.317H689.801L695.159 230.94L684.71 204.625H691.142L695.749 216.682L698.484 224.293L701.54 216.682L706.521 204.625H712.953Z" fill="#FEFEFE"></path></svg> 